<svg height="455pt" viewBox="0 -2 455.20243 455" width="455pt" xmlns="http://www.w3.org/2000/svg"><path d="m345.398438 82.109375c-36.242188-30.738281-83.160157-49.257813-134.402344-49.257813-12.617188 0-25 1.117188-37 3.277344-36.339844 6.519532-69.417969 22.5-96.578125 45.300782-5.980469 4.980468-11.660157 10.320312-17.039063 15.980468-35.5625 37.300782-57.382812 87.820313-57.382812 143.441406 0 7.878907.441406 15.640626 1.320312 23.277344 2.777344 25.050782 10.027344 48.742188 20.894532 70.296875l14.566406 24.519531c15.730468 22.765626 35.867187 42.257813 59.199218 57.203126 9.679688 6.203124 19.902344 11.601562 30.601563 16.160156 25 10.640625 52.519531 16.542968 81.417969 16.542968 18.222656 0 35.902344-2.339843 52.742187-6.742187 6.621094-1.738281 13.101563-3.777344 19.441407-6.117187 78.519531-29.0625 134.699218-104.121094 135.796874-192.480469v-.019531c.019532-.882813.019532-1.761719.019532-2.640626 0-63.640624-28.578125-120.601562-73.597656-158.742187zm0 0" fill="#8ac6dd"/><path d="m347.339844 79.820312c-37.992188-32.222656-86.410156-49.972656-136.339844-49.972656-12.636719 0-25.265625 1.121094-37.53125 3.328125-35.972656 6.453125-69.851562 22.34375-97.96875 45.949219-5.980469 4.980469-11.796875 10.433594-17.289062 16.214844-37.539063 39.371094-58.210938 91.046875-58.210938 145.507812 0 7.957032.453125 15.90625 1.339844 23.609375 2.761718 24.910157 9.890625 48.90625 21.199218 71.316407.746094 1.480468 2.554688 2.078124 4.027344 1.328124 1.480469-.746093 2.074219-2.550781 1.328125-4.027343-10.980469-21.773438-17.910156-45.078125-20.589843-69.289063-.863282-7.492187-1.300782-15.207031-1.300782-22.933594 0-52.914062 20.085938-103.121093 56.554688-141.375 5.335937-5.613281 10.984375-10.910156 16.792968-15.75 27.324219-22.9375 60.238282-38.375 95.183594-44.644531 11.914063-2.144531 24.183594-3.230469 36.46875-3.230469 48.507813 0 95.546875 17.242188 132.460938 48.546876 46.097656 39.054687 72.539062 96.078124 72.539062 156.453124 0 .855469 0 1.714844-.023437 2.621094-1.046875 84.226563-54.835938 160.464844-133.835938 189.703125-6.222656 2.296875-12.671875 4.328125-19.160156 6.03125-16.867187 4.410157-34.359375 6.644531-51.980469 6.644531-27.835937 0-54.832031-5.484374-80.246094-16.300781-10.492187-4.472656-20.636718-9.832031-30.15625-15.925781-23.089843-14.792969-42.726562-33.765625-58.355468-56.382812-.941406-1.367188-2.804688-1.707032-4.171875-.765626-1.363281.945313-1.703125 2.8125-.761719 4.171876 16.082031 23.28125 36.289062 42.804687 60.054688 58.027343 9.796874 6.277344 20.242187 11.792969 31.039062 16.394531 26.160156 11.132813 53.949219 16.78125 82.597656 16.78125 18.132813 0 36.132813-2.300781 53.503906-6.839843 6.675782-1.753907 13.308594-3.839844 19.714844-6.207031 39.605469-14.65625 73.609375-40.613282 98.328125-75.066407 25.257813-35.195312 38.890625-76.757812 39.429688-120.179687.023437-.902344.023437-1.804688.023437-2.707032-.007812-62.140624-27.21875-120.832031-74.664062-161.03125zm0 0" fill="#3a312a"/><path d="m165.917969 326.03125c-1.699219-.722656-3.539063-1.039062-5.179688-1.859375-1.960937-1-3.5-2.640625-5-4.261719l-11.761719-12.640625c-3.359374-3.609375-7.699218-6.097656-12.421874-7.464843-2.367188-.683594-4.917969-.625-7.246094-1.269532-2.019532-.5625-2.464844-1.457031-3.820313-3.128906-1.394531-1.71875-3.589843-2.628906-5.78125-2.910156-7.527343-.980469-16.355469 1.382812-22.960937 4.878906-3.75 1.984375-5.332032-3.386719-9.589844-3.6875-14.058594-.992188-21.78125-13.941406-35.570312-16.890625-2.152344-.457031-4.457032-.8125-6.140626-2.230469-3.246093-2.730468-2.605468-7.984375-.597656-11.722656 1.308594-2.433594 3.425782-4.820312 6.1875-4.949219 3.417969-.164062 5.894532 3.058594 7.878906 5.847657 2.851563 3.996093 5.984376 7.789062 9.371094 11.34375 1.976563 2.070312 4.691406 4.230468 7.402344 3.304687 3.351562-1.140625 3.574219-5.84375 2.523438-9.222656-1.65625-5.324219-17.40625-18.699219-15.003907-22.535157 5.652344-9.035156 15.652344-12.742187 15.863281-24.933593.027344-1.671875-.125-3.402344.472657-4.960938.265625-.699219 14.488281-12.660156 13.636719-12.816406 3.410156.617187 6.816406 1.234375 10.222656 1.847656 2.554687.460938 5.878906.566407 6.996094-1.777343 1.019531-2.128907-.773438-4.617188-2.851563-5.738282-2.074219-1.121094-4.527344-1.546875-6.386719-3.003906-1.851562-1.460938-2.671875-4.691406-.738281-6.042969 1.417969-.992187 3.355469-.375 4.960937.269531 3.65625 1.476563 24.984376 11.953126 25.890626 3.75.71875-6.5-10.980469-6.960937-13.160157-13.121093-1.5625-4.351563 2.480469-10.007813-2.550781-13.082031-2.339844-1.429688-5.414062-1.109376-7.824219-2.421876-6.285156-3.417968-3.707031-12.304687-7.765625-17.175781-2.1875-2.628906-6.792968-3.492187-8.90625-.804687-2.113281 2.6875-.726562 6.3125-.835937 9.367187-.070313 2.042969-1.105469 4.34375-3.105469 4.761719-3.109375.644531-4.894531-3.304688-7.253906-5.433594-2.554688-2.304687-6.359375-2.546875-9.773438-2.105468-7.1875.921874-17.355468 2.292968-16.867187-8.867188 5.8125-.554688 11.550781-.777344 17.121093-2.847656 1.632813-.609375 12.886719-8.351563 12.964844-8.320313-3.78125-1.445312-15.84375-.140625-16.339844-4.710937-.496093-4.589844 7.171876-5.074219 10.085938-4.238282 2.5.722657 5.265625.082032 6.769531-2.027343 2.042969-2.867188.050781-5.277344-1.761719-7.191407-5.058593-5.339843-10.121093-10.699218-15.179687-16.039062-.480469-.5-.980469-1.019531-1.519531-1.558594-35.5625 37.296875-57.382813 87.816406-57.382813 143.4375 0 7.878906.441407 15.640625 1.320313 23.28125 8.515625.105469 19.660156-1.179687 19.714844 10.160156.054687 11.878907 13.734374 15.207032 22.984374 18.417969 10.921876 3.804688 21.441407 8.785157 31.300782 14.785157-2.777344 7.519531 4.660156 14.617187 11.242187 19.199218 6.578125 4.578125 14.058594 11.558594 11.417969 19.117188-1.320312 3.839844-5.199219 6.921875-4.898438 10.980468.121094 1.882813 1.179688 3.5625 2.21875 5.140626 4.5 6.820312 9.519532 13.28125 15.019532 19.320312 1.921875 2.121094-6.058594 18.300781-14.339844 34.898438 9.679688 6.203124 19.902344 11.601562 30.601562 16.160156 9.621094-9.660156 22.71875-22.816406 28.417969-28.457032 5.222657-5.160156 14.742188-3.542968 15.660157-10.820312.820312-6.539062-2.277344-12.902344-2.839844-19.480469-.757813-8.558593 8.960937-22.199219 10.179687-30.699219 1.230469-8.5-7.148437-13.5-15.070312-16.820312zm0 0" fill="#d7e057"/><path d="m167.089844 323.265625c-.890625-.378906-1.753906-.640625-2.585938-.898437-.890625-.273438-1.726562-.53125-2.402344-.867188-1.523437-.78125-2.867187-2.226562-4.164062-3.632812l-11.761719-12.640626c-3.597656-3.863281-8.363281-6.734374-13.785156-8.300781-1.4375-.414062-2.835937-.589843-4.1875-.753906-1.113281-.140625-2.167969-.269531-3.089844-.527344-.789062-.214843-.859375-.308593-1.742187-1.429687l-.554688-.695313c-1.75-2.15625-4.492187-3.578125-7.722656-3.996093-7.496094-.976563-16.746094.972656-24.746094 5.203124-.121094.0625-.191406.082032-.195312.089844-.300782-.070312-1.0625-.707031-1.574219-1.128906-1.417969-1.175781-3.359375-2.789062-6.207031-2.988281-6.707032-.472657-11.964844-4.113281-17.527344-7.972657-5.226562-3.621093-10.628906-7.363281-17.628906-8.859374l-.691406-.144532c-1.652344-.339844-3.214844-.664062-4.144532-1.445312-1.875-1.578125-1.339844-5.304688.113282-8.003906 1.105468-2.058594 2.480468-3.320313 3.683593-3.375 1.882813-.089844 3.683594 2.324218 5.296875 4.589843 2.921875 4.097657 6.164063 8.027344 9.640625 11.671875 3.664063 3.84375 7.207031 5.214844 10.542969 4.078125 5.015625-1.710937 6.019531-7.8125 4.417969-12.953125-.878907-2.828125-4.046875-6.476562-7.71875-10.699218-2.578125-2.96875-6.808594-7.835938-7.34375-9.757813 1.742187-2.664063 3.992187-4.921875 6.167969-7.109375 4.785156-4.808594 9.730468-9.78125 9.890624-18.960938.003907-.347656.003907-.699218 0-1.050781 0-.902343-.003906-1.761719.144532-2.449219.851562-.820312 3.019531-2.742187 4.808594-4.332031 3.71875-3.296875 6.015624-5.332031 7.390624-6.726562l8.457032 1.53125c6.53125 1.183593 9.171875-1.214844 10.238281-3.4375 1.769531-3.699219-.710937-7.820313-4.132813-9.667969-1.003906-.542969-2.003906-.921875-2.96875-1.289062-1.148437-.433594-2.234374-.84375-2.984374-1.4375-.390626-.304688-.632813-.851563-.695313-1.203126.289063.019532.859375.140626 1.9375.574219.386719.15625.988281.421875 1.746094.757813 10.117187 4.457031 20.175781 8.179687 25.242187 5.261718 1.710938-.988281 2.78125-2.664062 3.007813-4.722656.609375-5.519531-4.257813-8.148437-7.808594-10.066406-2.40625-1.300781-4.890625-2.640625-5.511719-4.398438-.359375-1-.183594-2.453124.003906-3.988281.371094-3.082031.933594-7.738281-3.8125-10.640625-1.675781-1.023437-3.460937-1.367187-5.03125-1.667968-1.117187-.214844-2.171874-.417969-2.921874-.828126-2.230469-1.210937-2.773438-3.589843-3.472657-7.375-.554687-3-1.183593-6.398437-3.421875-9.085937-1.84375-2.214844-4.804687-3.621094-7.691406-3.523437-2.410156.035156-4.496094 1.023437-5.878906 2.785156-2.238282 2.847656-1.898438 6.09375-1.625 8.699218.089844.882813.175781 1.71875.152344 2.410157-.042969 1.140625-.5625 1.902343-.71875 1.933593-.417969.09375-1.707032-1.4375-2.386719-2.261718-.6875-.835938-1.402344-1.695313-2.246094-2.457032-2.84375-2.570312-6.9375-3.53125-12.28125-2.84375-4.101563.53125-9.722656 1.253907-12.015625-.855468-.578125-.53125-.976562-1.308594-1.1875-2.320313 4.914062-.429687 9.988281-.898437 15-2.765625 1.128906-.417968 3.839844-2.128906 11.164062-7.039062 1.078126-.71875 1.890626-1.265625 2.195313-1.457032.609375-.332031 1.105469-.871093 1.371094-1.570312.585937-1.546875-.1875-3.277344-1.738281-3.867188-.003907 0 0-.003906-.011719-.007812-.035157-.011719-.070313-.023438-.101563-.035156-.050781-.019532-.097656-.035156-.144531-.050782-1.644531-.5625-3.855469-.742187-6.394531-.945312-2.1875-.175781-6.644532-.535156-7.769532-1.371094.421876-.800781 4.210938-1.449218 6.265626-.855468 3.863281 1.113281 7.898437-.160157 10.046874-3.167969 3.601563-5.054688-.488281-9.371094-2.027343-10.996094l-15.195313-16.054687c-.492187-.515626-1.007812-1.046876-1.558594-1.601563-.570312-.574219-1.289062-.902344-2.160156-.878906-.808594.011719-1.578125.34375-2.132812.929687-37.539063 39.375-58.21093775 91.050782-58.21093775 145.511719 0 7.953125.45312475 15.902344 1.33984375 23.621094.171875 1.5 1.433594 2.636719 2.945312 2.65625.855469.011719 1.742188.007812 2.640626.003906 9.726562.003906 14.078124.632813 14.109374 7.171875.0625 12.914062 12.929688 17.203125 22.324219 20.335938.921875.304687 1.820313.605468 2.675781.902343 9.976563 3.472657 19.664063 7.964844 28.832032 13.375-.785156 5.082031 1.371094 12.152344 12.984375 20.234375 5.785156 4.03125 12.273437 10.019532 10.292969 15.683594-.390626 1.136719-1.160157 2.316406-1.972657 3.5625-1.566406 2.398438-3.335937 5.117188-3.082031 8.582031.175781 2.75 1.636719 4.972657 2.707031 6.601563 4.441407 6.726562 9.417969 13.164062 14.800781 19.128906-.414062 4.253906-9.058593 21.589844-14.300781 32.097656-.683593 1.371094-.222656 3.039063 1.066407 3.867188 9.796874 6.273437 20.246093 11.789062 31.042968 16.394531.378906.160156.777344.238281 1.175782.238281.78125 0 1.550781-.304687 2.125-.882812l1.300781-1.304688c9.652343-9.695312 21.664062-21.757812 27.101562-27.136718 1.65625-1.636719 4.042969-2.449219 6.574219-3.308594 4.085938-1.390625 9.175781-3.121094 9.953125-9.273438.566406-4.496094-.453125-8.730468-1.441406-12.824218-.609375-2.527344-1.183594-4.90625-1.386719-7.292969-.363281-4.089844 2.5625-10.519531 5.144531-16.1875 2.277344-5.007813 4.429688-9.742188 5.015625-13.820313 1.746094-12.207031-12.285156-18.089844-16.882812-20.019531zm10.9375 19.15625c-.460938 3.230469-2.535156 7.785156-4.539063 12.1875-3.03125 6.65625-6.164062 13.535156-5.660156 19.191406.238281 2.832031.894531 5.550781 1.53125 8.179688.898437 3.734375 1.75 7.265625 1.324219 10.667969-.28125 2.222656-1.851563 2.957031-5.9375 4.34375-2.914063.992187-6.222656 2.117187-8.859375 4.722656-5.425781 5.371094-17.359375 17.351562-26.992188 27.027344-9.003906-3.941407-17.738281-8.535157-26.019531-13.6875 13.40625-26.972657 15.410156-32.792969 12.664062-35.828126-5.371093-5.894531-10.328124-12.273437-14.734374-18.949218-.90625-1.378906-1.664063-2.605469-1.734376-3.710938-.109374-1.472656.925782-3.058594 2.121094-4.890625.933594-1.429687 1.992188-3.050781 2.621094-4.878906 2.582031-7.390625-1.636719-14.984375-12.539062-22.574219-4.734376-3.292968-12.347657-9.714844-10.140626-15.695312.5-1.347656-.027343-2.855469-1.253906-3.601563-10.085937-6.140625-20.8125-11.203125-31.875-15.054687-.882812-.304688-1.800781-.609375-2.746094-.925782-10.304687-3.433593-18.1875-6.695312-18.222656-14.671874-.0625-13.152344-12.011718-13.179688-20.019531-13.144532-.671875-6.65625-1.011719-13.464844-1.011719-20.28125 0-51.871094 19.292969-101.132812 54.40625-139.089844l14.496094 15.3125c2.230469 2.355469 1.90625 2.808594 1.496094 3.382813-.777344 1.085937-2.316406 1.230469-3.5.886719-2.824219-.8125-8.492188-.761719-11.667969 1.914062-1.671875 1.40625-2.460937 3.371094-2.226563 5.53125.519532 4.789063 5.875 5.84375 10.96875 6.335938-2.453124 1.625-5 3.269531-5.660156 3.566406-4.355468 1.617188-8.910156 2.015625-13.730468 2.433594-.875.078125-1.75.152344-2.628907.238281-1.492187.140625-2.648437 1.359375-2.714843 2.855469-.183594 4.195312.925781 7.421875 3.292968 9.597656 4.347656 3.996094 11.570313 3.066406 16.953125 2.375 2.347657-.300781 5.53125-.3125 7.382813 1.359375.519531.46875 1.066406 1.128906 1.640625 1.828125 1.695312 2.050781 4.257812 5.136719 8.230469 4.316406 3.636718-.757812 5.378906-4.359375 5.496093-7.59375.042969-1.117187-.074219-2.199218-.179687-3.246094-.222656-2.136718-.308594-3.5.378906-4.375.25-.316406.667969-.480468 1.246094-.492187 1.101562.011719 2.3125.546875 2.996094 1.367187 1.230468 1.480469 1.667968 3.839844 2.128906 6.335938.738281 3.972656 1.652344 8.914062 6.507812 11.554688 1.570313.855468 3.207032 1.167968 4.65625 1.449218 1.175782.226563 2.289063.4375 3.035156.898438 1.238282.753906 1.382813 1.472656.980469 4.796875-.25 2.0625-.53125 4.398437.304688 6.726562 1.390625 3.917969 5.066406 5.90625 8.308593 7.660157 3.589844 1.9375 4.839844 2.851562 4.699219 4.132812-.011719.105469-.03125.160156-.027343.171875-.476563.367187-3.539063 1.632813-19.839844-5.546875-.835938-.367188-1.492188-.65625-1.917969-.828125-1.46875-.59375-4.90625-1.980469-7.804687.050781-1.488282 1.039063-2.335938 2.664063-2.386719 4.574219-.066407 2.335937 1.109375 4.804687 2.992187 6.285156 1.476563 1.160157 3.121094 1.78125 4.570313 2.332031.816406.3125 1.589843.601563 2.242187.957032 1.046875.5625 1.605469 1.53125 1.574219 1.800781-.058594.113281-.984375.625-3.757813.125l-10.222656-1.851563s0 0-.003906 0c-1.367188-.25-2.695312.484376-3.253906 1.695313-1.144532 1.207031-5.019532 4.640625-7.414063 6.765625-5.707031 5.0625-5.945312 5.292969-6.304687 6.234375-.679688 1.777344-.671875 3.519531-.667969 5.058594l-.003906.925781c-.113281 6.761719-3.660157 10.324219-8.144531 14.832031-2.519532 2.53125-5.125 5.148438-7.261719 8.5625-2.574219 4.113281 2.164062 9.566407 8.160156 16.46875 2.679687 3.085938 6.015625 6.921875 6.523437 8.546875.761719 2.457032.457032 5.125-.628906 5.492188-.882812.308594-2.4375-.621094-4.257812-2.535156-3.28125-3.441407-6.339844-7.152344-9.097656-11.015626-1.960938-2.75-5.28125-7.332031-10.46875-7.101562-3.425782.160156-6.507813 2.476562-8.683594 6.523438-2.558594 4.753906-3.242188 11.613281 1.304687 15.4375 2.09375 1.761718 4.589844 2.277343 6.792969 2.734374l.652344.136719c5.824218 1.242188 10.507812 4.484375 15.464844 7.921875 5.988281 4.144532 12.179687 8.4375 20.523437 9.023438.863281.0625 1.636719.65625 2.800781 1.621094 1.699219 1.410156 4.542969 3.769531 8.402344 1.722656 6.839844-3.617188 14.953125-5.359375 21.167969-4.554688 1.675781.21875 3.074219.882813 3.839843 1.828125l.496094.625c1.117188 1.417969 2.167969 2.761719 4.859375 3.503907 1.347657.375 2.671875.539062 3.953125.695312 1.171875.148438 2.277344.285156 3.257813.566406 4.378906 1.265625 8.203125 3.558594 11.058593 6.625l11.757813 12.636719c1.496094 1.617187 3.363281 3.628906 5.859375 4.902344 1.136719.570312 2.304688.929687 3.335938 1.25.679687.207031 1.363281.414062 2.027343.695312 9.785157 4.105469 14.003907 8.433594 13.257813 13.621094zm0 0" fill="#3a312a"/><path d="m204.476562 61.128906c-9.898437-7.417968-19.820312-17.199218-30.480468-25-36.339844 6.519532-69.417969 22.5-96.578125 45.300782 1.878906 1.878906 4.019531 3.460937 6.519531 4.660156 3.359375 1.621094 7.21875 2.460937 9.921875 5.039062 6.539063 6.242188 3.4375 19.621094 11.519531 23.660156 2.339844 1.160157 5.078125 1.160157 7.5 2.101563 4.558594 1.757813 7.199219 6.398437 10.859375 9.640625 3.660157 3.238281 10.378907 4.480469 12.71875.199219 1.28125-2.339844.5625-5.300781 1.320313-7.859375 1.539062-5.101563 8.140625-6.660156 13.402344-5.800782 5.257812.839844 10.417968 3.21875 15.699218 2.5 5.277344-.71875 10.257813-6.78125 7.277344-11.199218 8.601562 3 19.882812 5.257812 25.382812-2-3.742187-3.460938-7.820312-8.582032-5.382812-13.0625 1.042969-1.878906 3.140625-3.199219 3.621094-5.296875.601562-2.660157-1.578125-5.019531-2.9375-7.402344-1.34375-2.359375-1.101563-6.417969 1.617187-6.660156 3.960938 5.28125 11.402344 7.640625 17.699219 5.621093.582031-6.039062-4.816406-10.800781-9.679688-14.441406zm0 0" fill="#d7e057"/><path d="m206.277344 58.730469c-4.59375-3.445313-9.144532-7.363281-13.957032-11.511719-5.324218-4.582031-10.828124-9.324219-16.546874-13.507812-.664063-.488282-1.5-.675782-2.300782-.53125-35.976562 6.453124-69.855468 22.34375-97.980468 45.953124-.644532.542969-1.03125 1.328126-1.066407 2.167969-.039062.839844.28125 1.660157.875 2.253907 2.226563 2.222656 4.628907 3.9375 7.335938 5.238281 1.136719.550781 2.289062 1 3.402343 1.4375 2.214844.871093 4.308594 1.691406 5.75 3.070312 2.339844 2.234375 3.179688 5.996094 4.066407 9.984375 1.1875 5.328125 2.53125 11.363282 8.191406 14.195313 1.648437.816406 3.355469 1.160156 4.863281 1.46875 1.050782.210937 2.039063.410156 2.890625.742187 2.351563.910156 4.246094 3.023438 6.25 5.265625 1.152344 1.289063 2.339844 2.621094 3.703125 3.824219 2.621094 2.320312 6.265625 3.695312 9.550782 3.695312.628906 0 1.242187-.050781 1.835937-.152343 2.628906-.460938 4.742187-1.933594 5.953125-4.148438 1.066406-1.953125 1.167969-3.972656 1.253906-5.757812.046875-1 .09375-1.949219.308594-2.675781.960938-3.191407 5.863281-4.386719 10.054688-3.707032 1.609374.257813 3.234374.679688 4.953124 1.125 3.699219.957032 7.523438 1.949219 11.625 1.386719 4.195313-.574219 8.179688-3.554687 9.914063-7.425781.359375-.804688.605469-1.621094.734375-2.4375 11.359375 3.046875 19.417969 1.539062 23.996094-4.496094.929687-1.230469.777344-2.96875-.355469-4.015625-1.980469-1.832031-6.417969-6.421875-4.792969-9.40625.257813-.464844.726563-.992187 1.21875-1.546875 1-1.125 2.242188-2.53125 2.703125-4.542969.746094-3.308593-.984375-5.980469-2.375-8.128906-.292969-.449219-.582031-.894531-.839843-1.335937 4.898437 3.753906 11.667968 5.121093 17.585937 3.21875 1.140625-.367188 1.957031-1.375 2.070313-2.570313.707031-7.390625-5.097657-12.808594-10.871094-17.128906zm-7.417969 9.417969c-.625-.828126-1.621094-1.277344-2.664063-1.1875-1.863281.164062-3.441406 1.234374-4.332031 2.929687-1.214843 2.3125-1.0625 5.683594.371094 8.207031.324219.570313.691406 1.136719 1.058594 1.707032.859375 1.324218 1.75 2.699218 1.5625 3.539062-.117188.503906-.714844 1.179688-1.34375 1.894531-.65625.734375-1.398438 1.574219-1.988281 2.636719-1.660157 3.054688-2.199219 7.9375 3.761718 14.476562-3.9375 2.753907-10.691406 2.484376-20.140625-.8125-1.21875-.425781-2.578125-.019531-3.363281 1-.789062 1.023438-.832031 2.4375-.109375 3.507813.179687.269531.734375 1.089844.046875 2.621094-.871094 1.949219-3.128906 3.640625-5.25 3.929687-2.929688.402344-6.027344-.402344-9.308594-1.25-1.777344-.464844-3.617187-.9375-5.5-1.238281-6.804687-1.113281-14.75 1.242187-16.761718 7.90625-.425782 1.433594-.492188 2.855469-.550782 4.109375-.0625 1.300781-.117187 2.425781-.523437 3.164062-.210938.390626-.621094.925782-1.722657 1.121094-1.886718.335938-4.632812-.585937-6.375-2.125-1.097656-.972656-2.121093-2.117187-3.207031-3.328125-2.390625-2.671875-4.859375-5.433593-8.558593-6.863281-1.320313-.511719-2.613282-.773438-3.863282-1.027344-1.257812-.253906-2.449218-.492187-3.378906-.957031-3.097656-1.550781-3.984375-5.527344-5.011719-10.128906-.996093-4.464844-2.121093-9.527344-5.777343-13.015625-2.296876-2.195313-5.167969-3.324219-7.703126-4.316406-1.007812-.398438-2.019531-.792969-2.992187-1.261719-1.117187-.535157-2.171875-1.164063-3.171875-1.898438 26.441406-21.433593 57.871094-35.972656 91.195312-42.171875 5.167969 3.863282 10.234376 8.222656 15.140626 12.453125 4.898437 4.214844 9.523437 8.195313 14.28125 11.761719 3.730468 2.796875 7.492187 6.066406 8.339843 9.667969-4.566406.570312-9.402343-1.371094-12.160156-5.050781zm0 0" fill="#3a312a"/><path d="m345.398438 82.109375c-1.28125.78125-2.480469 1.660156-3.558594 2.660156-4.5 4.199219-5.203125 13.421875-13.140625 13.0625-7.9375-.371093-12.757813-11.652343-21.21875-5.210937-2.679688 2.042968-4.582031 4.953125-7.1875 7.085937-4.496094 3.679688-9.722657 4.816407-15.378907 5.1875-.816406.054688-14.113281 1.0625-14.050781 1.191407 1.117188 2.042968 1.984375 4.222656 2.574219 6.472656-3.367188 1.523437-7.175781 1.570312-10.847656 1.945312s-7.558594 1.234375-10.109375 3.90625c-3.097657 3.253906-3.199219 8.90625-.214844 12.269532-3.511719 2.863281-8.703125 5.285156-7.980469 10.535156.722656 5.210937 6.34375 8.210937 11.484375 9.296875 5.144531 1.082031 10.753907 1.214843 15.03125 4.273437.160157.113282-6.054687 2.859375-6.730469 3.023438-2.359374.582031-4.808593.707031-7.214843.996094-4.648438.554687-9.28125 1.632812-12.363281 5.523437-1.972657 2.488281-1.640626 5.136719-1.566407 7.957031-4.980469.457032-10.007812-2.820312-13.964843-5.480468-4.34375-2.917969-8.753907-6.132813-13.917969-6.988282-1.871094-.308594-4.113281-.136718-5.191407 1.425782-.832031 1.207031-.664062 2.824218-.359374 4.261718.910156 4.265625 2.730468 8.335938 5.304687 11.855469-3.980469-.265625-9.226563-1.097656-11.621094 3.078125-1.941406 3.378906-.109375 7.683594 1.234375 10.957031 2.527344 6.152344 8.519532 19.792969 17.40625 15.179688 2.847656-1.476563 5.511719-3.625 8.710938-3.90625 2.773437-.246094 5.453125.980469 7.917968 2.277343 2.464844 1.300782 4.980469 2.730469 7.757813 2.953126 5.410156.433593 5.816406-4.539063 9.839844-6.421876 2.261719-1.058593 5.058593-.117187 6.863281 1.609376 2.988281 2.84375 3.410156 7.585937 7.683594 9.144531 2.230468.816406 4.691406.183593 7.050781-.121094 6.117187-.78125 13.824219.867187 18.5 5.152344 4.15625 3.804687 4.097656 10.316406 8.523437 13.800781 2.652344 2.09375 7.382813 1.785156 8.589844-1.363281 1-2.617188-.261718-6.683594 2.394532-7.570313 12.234374-4.09375-.957032 25.171875-2.304688 27.574219-1.8125 3.230469-4.132812 6.589844-7.699219 7.59375-4.828125 1.367187-9.582031-2.105469-13.296875-5.480469-9.566406-8.679687-19.445312-18.742187-32.292968-20.125-9.832032-1.0625-21 3.003906-28.976563-2.84375l-30.574219 14.65625c-2.339844 1.121094-4.289062 3.023438-5.179687 5.460938-2.140625 5.847656 3.273437 9.152344 5.808593 13.582031 2.726563 4.753906 2.015626 10.621094 2.183594 16.097656.167969 5.480469 2.023438 11.820313 7.167969 13.699219 1.839844.671875 3.847656.65625 5.789063.910156 13.992187 1.824219 22.285156 17.351563 22.992187 31.445313.703125 14.09375-3.71875 27.980469-3.949219 42.089843-.425781 25.941407 13.140625 49.792969 26.292969 72.152344.589844 1.003906 1.246094 2.066406 2.304687 2.546875 1.3125.589844 2.832032.121094 4.191407-.355469 4.929687-1.722656 9.859375-3.449218 14.785156-5.171874.597656-7.125-4.007813-14.460938-1.46875-21.144532 1.171875-3.078125 3.695313-5.429687 5.339844-8.28125 5.148437-8.929687.796875-20.003906-1.238281-30.105468-.34375-1.71875-.589844-3.613282.289062-5.125.785156-1.347657 2.28125-2.078126 3.644531-2.835938 6.199219-3.441406 11.195313-8.996094 13.96875-15.523438.980469-2.3125 1.695313-4.78125 1.691407-7.296874-.003907-3.722657-1.457032-7.898438.765624-10.886719 3.007813-4.050781 11.082032-3.25 12.015626-8.210938.222656-1.191406-.097657-2.4375.148437-3.625 1.425781-6.820312 15.214844-.800781 16.71875-10.222656.453125-2.851563-.671875-5.761719-2.765625-7.75-5.476562-5.191406-13.425781-4.652344-19.640625-8.121094-3.890625-2.175781-9.660156-12.519531-2.550781-14.242187 5.023437-1.214844 5.878906 6.640625 11.148437 4.84375 2.117188-.722656 3.816407-2.242188 5.214844-3.980469 7.421875-9.238281 19.359375 2.722656 29.339844-9.5 5.339843-6.539063 4.980469-17.277344-.398438-23.796875-1.28125-1.5625-2.382812-3.203125-2.882812-5.160156-1.476563-5.800782 4.300781-12.160156 10.222656-11.242188l6.257813 8.960938c4.78125 3.640625 6.300781.058594 9.320312 1.199218 8.980469 3.339844 19.261719 2.820313 27.980469-1.121093 3.796875-1.707031 8.085937-1.605469 11.761719.082031.59375-.394531.621093-.417969 1.214843-.8125.371094-64.132812-28.285156-121.570312-73.589843-159.953125zm0 0" fill="#d7e057"/><path d="m347.339844 79.820312c-.988282-.835937-2.398438-.945312-3.5-.273437-1.503906.917969-2.867188 1.933594-4.046875 3.03125-1.910157 1.78125-3.144531 4.074219-4.339844 6.292969-2.339844 4.34375-3.574219 6.097656-6.613281 5.960937-2.253906-.105469-4.433594-1.613281-6.742188-3.210937-4.035156-2.796875-9.558594-6.621094-16.433594-1.382813-1.625 1.238281-2.9375 2.679688-4.203124 4.074219-1.03125 1.132812-2.003907 2.207031-3.066407 3.074219-3.367187 2.753906-7.453125 4.105469-13.675781 4.519531-15.496094 1.019531-15.496094 1.019531-16.453125 2.6875-.523437.90625-.53125 2.019531-.03125 2.933594.550781 1.007812 1.035156 2.050781 1.445313 3.121094-1.65625.371093-3.449219.523437-5.308594.683593-.695313.058594-1.390625.117188-2.082032.1875-3.507812.359375-8.566406 1.25-11.976562 4.824219-3.390625 3.554688-4.101562 9.203125-2.0625 13.605469-3.320312 2.414062-7.753906 5.71875-6.933594 11.679687.9375 6.761719 7.761719 10.542969 13.839844 11.820313 1.3125.273437 2.652344.492187 3.992188.710937 1.429687.226563 2.828124.457032 4.160156.753906-1.519532.367188-3.128906.53125-4.835938.703126-.660156.066406-1.316406.132812-1.96875.210937-4.96875.59375-10.5625 1.847656-14.359375 6.636719-1.742187 2.199218-2.191406 4.5-2.269531 6.601562-3.316406-.769531-6.769531-3.089844-9.238281-4.75l-1.042969-.703125c-4.257812-2.882812-8.664062-5.859375-14.058594-6.753906-3.597656-.589844-6.566406.386719-8.148437 2.679687-1.523438 2.210938-1.199219 4.820313-.824219 6.59375.585938 2.761719 1.535156 5.464844 2.792969 8.011719-3.261719.167969-6.699219 1.167969-8.78125 4.800781-2.632813 4.59375-.453125 9.898438 1.0625 13.585938 2.816406 6.863281 6.859375 15.035156 13.199219 17.359375 2.722656 1 5.613281.773437 8.367187-.652344.796875-.414062 1.582031-.878906 2.367187-1.34375 1.824219-1.074219 3.542969-2.09375 5.21875-2.238281 2.039063-.175781 4.296876.90625 6.261719 1.945312l.550781.289063c2.425782 1.289063 5.175782 2.742187 8.363282 2.996094 4.808594.394531 7.105468-2.34375 8.777344-4.335938.851562-1.019531 1.585937-1.894531 2.574218-2.355469.914063-.4375 2.433594.023438 3.523438 1.0625.835937.792969 1.476562 1.957032 2.15625 3.1875 1.296875 2.347657 2.910156 5.269532 6.5625 6.605469 2.546875.925781 5.03125.546875 7.226562.214844.414063-.066406.824219-.128906 1.234375-.179687 5.839844-.746094 12.457031 1.054687 16.097657 4.386718 1.511718 1.386719 2.378906 3.476563 3.300781 5.6875 1.167969 2.796875 2.484375 5.96875 5.390625 8.261719 2.257812 1.773437 5.527344 2.421875 8.328125 1.648437 2.324219-.640624 4.117187-2.207031 4.917969-4.300781.53125-1.390625.613281-2.835937.683593-4.113281.035157-.558594.078125-1.351562.171875-1.78125.367188-.101562.609375-.132812.75-.140625 1.488282 3.257813-4.601562 19.339844-6.933594 23.5-1.484374 2.648437-3.347656 5.457031-5.894531 6.175781-3.523437 1-7.660156-2.269531-10.464843-4.8125l-2.507813-2.292968c-9.230469-8.472657-18.777344-17.230469-31.480469-18.597657-3.617187-.390625-7.316406-.144531-10.890625.097657-6.308593.421874-12.265625.824218-16.632812-2.375-.894531-.65625-2.070313-.761719-3.070313-.289063l-30.574218 14.65625c-3.195313 1.535156-5.578126 4.066406-6.699219 7.132813-2.125 5.800781 1.242187 9.925781 3.699219 12.941406.890624 1.09375 1.730468 2.125 2.328124 3.164062 1.769532 3.09375 1.761719 7.046875 1.753907 11.230469 0 1.164063-.003907 2.328125.03125 3.472656.25 8.285157 3.667969 14.425781 9.136719 16.421875 1.691406.617188 3.394531.773438 4.898437.90625.511719.046875 1.023437.09375 1.53125.160156 12.390625 1.617188 19.75 15.957032 20.386719 28.621094.371094 7.445313-.738282 14.769532-1.910156 22.523438-.957032 6.300781-1.9375 12.8125-2.046876 19.367187-.449218 27.554688 14.609376 53.152344 26.707032 73.71875.671875 1.144531 1.6875 2.867188 3.65625 3.757813.875.394531 1.761718.542968 2.601562.542968 1.539063 0 2.925782-.488281 3.816406-.796874l14.785157-5.171876c1.121093-.390624 1.902343-1.402343 2-2.582031.292969-3.480469-.453125-6.800781-1.167969-10.015625-.839844-3.757812-1.628906-7.308594-.488281-10.3125.554687-1.457031 1.589843-2.839844 2.691406-4.300781.835937-1.109375 1.699219-2.253906 2.445313-3.550781 4.773437-8.28125 2.449218-17.964844.398437-26.503906-.460937-1.917969-.917969-3.820313-1.296875-5.691407-.140625-.695312-.464844-2.320312-.058594-3.019531.292969-.507812 1.222656-1.015625 2.121094-1.507812l.386719-.214844c6.804687-3.78125 12.230469-9.808594 15.269531-16.976563 1.300781-3.066406 1.933594-5.839843 1.933594-8.46875 0-1.214843-.132813-2.40625-.253906-3.554687-.25-2.332032-.46875-4.34375.421874-5.542969.800782-1.074219 2.707032-1.761719 4.554688-2.425781 3.023438-1.089844 7.167969-2.578125 8.003906-7.015625.171875-.914063.140625-1.761719.117188-2.441407-.015625-.453124-.03125-.878906.019531-1.128906.1875-.902344 1.582031-1.226562 4.839844-1.652344 4.277343-.558593 10.734375-1.402343 11.898437-8.710937.601563-3.765625-.769531-7.652344-3.660156-10.398437-3.78125-3.582032-8.300781-4.769532-12.675781-5.917969-2.746094-.722657-5.339844-1.402344-7.566407-2.648438-1.945312-1.085937-4.667968-5.542969-4.359374-7.8125.046874-.339843.09375-.660156 1.054687-.890625.585937-.148437.941406.03125 2.453125 1.632813 1.652344 1.75 4.414062 4.675781 8.957031 3.132812 2.421875-.828125 4.570313-2.441406 6.585938-4.941406 2.355469-2.9375 5.222656-2.902344 10.097656-2.582031 5.753906.371094 12.910156.835937 19.226563-6.898438 6.132812-7.511718 5.949218-19.898437-.40625-27.601562-1.292969-1.574219-1.980469-2.773438-2.292969-3.996094-.445313-1.746094.171875-3.757812 1.644531-5.382812 1.164062-1.28125 2.621094-2.050782 4.054688-2.1875l5.414062 7.75c.179688.253906.394531.480468.640625.667968 4.121094 3.136719 7.074219 2.300782 8.839844 1.804688.84375-.238282 1.03125-.265625 1.25-.183594 9.628906 3.582031 20.65625 3.144531 30.257812-1.195312 2.921875-1.316407 6.304688-1.289063 9.28125.074218.949219.433594 2.050781.347656 2.921875-.234375l1.210938-.8125c.828125-.550781 1.324218-1.480469 1.332031-2.476562.367187-62.617188-26.84375-121.757813-74.644531-162.253907zm57.445312 160.234376c-8.179687 3.695312-17.546875 4.074218-25.683594 1.050781-2.09375-.789063-3.832031-.300781-4.984374.023437-1.171876.328125-1.753907.492188-3.21875-.539062l-5.976563-8.558594c-.46875-.667969-1.191406-1.117188-2-1.246094-3.785156-.585937-7.730469.925782-10.566406 4.050782-2.835938 3.117187-3.964844 7.191406-3.019531 10.894531.6875 2.699219 2.210937 4.796875 3.46875 6.328125 4.554687 5.523437 4.734374 14.679687.394531 19.996094-4.363281 5.339843-8.917969 5.042968-14.191407 4.703124-5.03125-.324218-10.738281-.699218-15.160156 4.816407-1.277344 1.582031-2.535156 2.570312-3.84375 3.015625-.707031.242187-.960937.226562-2.65625-1.566406-1.535156-1.628907-4.101562-4.347657-8.230468-3.351563-3.140626.757813-5.175782 2.914063-5.585938 5.910156-.746094 5.4375 3.945312 11.945313 7.375 13.863281 2.894531 1.617188 5.984375 2.429688 8.96875 3.214844 3.808594 1 7.410156 1.945313 10.070312 4.46875 1.4375 1.363282 2.152344 3.316406 1.867188 5.097656-.398438 2.511719-1.875 3.074219-6.75 3.710938-3.734375.488281-8.851562 1.15625-9.9375 6.371094-.203125.964844-.167969 1.855468-.144531 2.570312.015625.445313.03125.863282-.019531 1.117188-.1875.996094-1.6875 1.601562-4.136719 2.480468-2.558594.921876-5.457031 1.964844-7.335938 4.492188-2.292969 3.082031-1.894531 6.789062-1.578125 9.761719.113282 1.042969.21875 2.027343.21875 2.917969 0 1.808593-.472656 3.8125-1.453125 6.125-2.523437 5.941406-7.019531 10.941406-12.660156 14.074218l-.363281.199219c-1.464844.804687-3.289063 1.804687-4.421875 3.75-1.367188 2.351563-1.085938 4.972656-.632813 7.222656.386719 1.941407.863282 3.917969 1.339844 5.90625 1.964844 8.175781 3.820312 15.902344.238281 22.109375-.5625.976563-1.28125 1.929688-2.042969 2.941406-1.300781 1.730469-2.648437 3.523438-3.503906 5.773438-1.78125 4.691406-.753906 9.296875.238282 13.753906.492187 2.199219.960937 4.308594 1.070312 6.316406l-12.8125 4.480469c-1.34375.46875-1.816406.496094-1.960938.453125-.257812-.136718-.765624-1.003906-.957031-1.332031-11.71875-19.921875-26.304687-44.714844-25.882812-70.582031.101562-6.152344 1.054687-12.464844 1.980469-18.566406 1.164062-7.707032 2.371093-15.671876 1.96875-23.71875-.777344-15.472657-9.816407-32.210938-25.601563-34.273438-.585937-.078125-1.179687-.132812-1.769531-.183594-1.246094-.117187-2.421875-.222656-3.378906-.570312-3.625-1.324219-5.0625-6.53125-5.199219-10.96875-.03125-1.082032-.027344-2.175782-.027344-3.277344.011719-4.789062.019531-9.738281-2.550781-14.226562-.839844-1.460938-1.878906-2.738282-2.882813-3.96875-2.601562-3.195313-3.578125-4.730469-2.714843-7.085938.574218-1.566406 1.90625-2.949219 3.660156-3.789062l29.050781-13.921876c5.800781 3.398438 12.519531 2.949219 19.039063 2.507813 3.46875-.234375 6.746093-.453125 9.84375-.121094 10.742187 1.160157 19.550781 9.242188 28.066406 17.054688l2.535156 2.3125c3.859375 3.503906 9.742188 7.953125 16.128906 6.144531 4.675782-1.324219 7.535156-5.511719 9.496094-9.011719.128906-.226562 11.902344-23.582031 6.238281-30.425781-.960937-1.160156-3.214843-2.898438-7.503906-1.464844-3.617187 1.210938-3.824219 4.859375-3.945313 7.039063-.050781.878906-.101562 1.789062-.296874 2.304687-.117188.304688-.421876.527344-.910157.660156-.980469.269532-2.25.027344-3.019531-.578124-1.679688-1.324219-2.554688-3.425782-3.566406-5.855469-1.078125-2.585938-2.296875-5.519531-4.789063-7.800781-5.6875-5.207032-14.601562-6.726563-20.910156-5.917969-.457031.058593-.917969.132812-1.382813.203125-1.625.25-3.160156.480468-4.257812.082031-1.472656-.539063-2.203125-1.757813-3.367188-3.871094-.832031-1.5-1.769531-3.203125-3.273437-4.632812-2.917969-2.78125-7.015625-3.644531-10.203125-2.152344-2.191406 1.023437-3.546875 2.640625-4.632812 3.9375-1.492188 1.785156-2.039063 2.335937-3.699219 2.210937-1.953125-.15625-3.933594-1.207031-6.03125-2.316406l-.566407-.300781c-2.921874-1.535156-6.121093-2.925781-9.582031-2.613281-3.03125.265625-5.535156 1.746094-7.746093 3.054687-.691407.40625-1.378907.8125-2.082032 1.179688-1.265625.65625-2.390625.765625-3.539062.347656-4.667969-1.714844-8.460938-10.964844-9.785156-14.1875-1.117188-2.71875-2.503907-6.097656-1.332032-8.144531 1.148438-2.007813 3.789063-1.964844 7.691406-1.660156l1.128907.085937c1.175781.078125 2.265625-.527344 2.828125-1.550781.558594-1.019532.476562-2.273438-.210938-3.214844-2.316406-3.164062-3.972656-6.867188-4.789062-10.703125-.335938-1.585937-.117188-1.925781-.109375-1.941406.074219-.097657.8125-.398438 2.230469-.164063 4.101562.675782 7.78125 3.167969 11.675781 5.800782l1.0625.714843c3.875 2.609375 9.726562 6.542969 15.910156 5.976563 1.574219-.144532 2.765625-1.484375 2.726563-3.066406l-.03125-.898438c-.089844-2.464844-.085938-3.8125.949218-5.117188 2.300782-2.902343 5.804688-3.863281 10.367188-4.410156.621094-.074218 1.238281-.136718 1.859375-.199218 1.855469-.1875 3.777343-.382813 5.71875-.859376.082031-.019531 8.382812-2.347656 8.960937-5.367187.21875-1.152344-.253906-2.332031-1.207031-3.011719-3.792969-2.714844-8.191406-3.425781-12.441406-4.109375-1.246094-.203125-2.492188-.402343-3.714844-.660156-3.894531-.820313-8.617187-3.085937-9.128906-6.773437-.308594-2.226563 1.253906-3.632813 4.644531-6.09375.78125-.566407 1.550781-1.125 2.257812-1.703126.632813-.515624 1.027344-1.269531 1.09375-2.085937.066407-.8125-.203124-1.621094-.746093-2.230469-1.9375-2.183594-1.871094-6.09375.144531-8.207031 1.574219-1.648437 4.117188-2.570313 8.242188-2.992187.65625-.070313 1.320312-.125 1.980468-.183594 3.234375-.273438 6.582032-.558594 9.796875-2.011719 1.332031-.601563 2.035157-2.078125 1.664063-3.492187-.277344-1.066407-.613282-2.117188-1-3.148438 3.746094-.3125 8.914062-.710938 9.773437-.769531 5.023438-.332031 11.507813-1.292969 17.082031-5.859375 1.40625-1.148438 2.574219-2.4375 3.703126-3.679688 1.136718-1.25 2.210937-2.429687 3.402343-3.339844 3.265625-2.488281 5.238281-1.328124 9.378907 1.542969 2.769531 1.917969 5.90625 4.089844 9.882812 4.277344 7.132812.292969 10.027344-5.132813 12.171875-9.113281 1.007813-1.875 1.960937-3.644532 3.140625-4.746094.40625-.371094.84375-.738281 1.308594-1.09375 44.625 38.65625 70.296875 94.21875 70.804687 153.203125-3.726562-.9375-7.675781-.613281-11.203125.976563zm0 0" fill="#3a312a"/><path d="m425.757812 22.457031c-1.949218 23.128907-26.046874 26.78125-26.046874 26.78125 20.691406.972657 25.847656 28.117188 25.847656 28.117188.445312-19.355469 26.644531-28.40625 26.644531-28.40625-19.628906-1.171875-26.445313-26.492188-26.445313-26.492188zm0 0" fill="#d7e057"/><path d="m452.378906 45.953125c-17.207031-1.027344-23.664062-24.046875-23.726562-24.277344-.382813-1.40625-1.730469-2.332031-3.167969-2.207031-1.449219.132812-2.59375 1.285156-2.714844 2.734375-1.722656 20.429687-22.628906 23.925781-23.507812 24.066406-1.527344.230469-2.628907 1.578125-2.546875 3.121094.078125 1.539063 1.3125 2.769531 2.855468 2.839844 18.054688.851562 22.996094 25.4375 23.042969 25.6875.273438 1.421875 1.519531 2.433593 2.945313 2.433593.082031 0 .167968-.003906.25-.011718 1.53125-.128906 2.714844-1.386719 2.75-2.917969.390625-17.015625 24.386718-25.554687 24.628906-25.640625 1.347656-.46875 2.183594-1.828125 1.988281-3.246094-.199219-1.414062-1.367187-2.496094-2.796875-2.582031zm-27.132812 20.691406c-2.710938-6.261719-7.417969-13.8125-15.171875-17.753906 5.863281-2.804687 12.816406-7.824219 16.402343-16.542969 3.101563 6.140625 8.402344 13.757813 16.667969 17.441406-6.011719 3.285157-13.84375 8.816407-17.898437 16.855469zm0 0" fill="#3a312a"/><path d="m382.359375 56.417969c-1.378906 16.359375-18.421875 18.941406-18.421875 18.941406 14.632812.6875 18.28125 19.890625 18.28125 19.890625.3125-13.691406 18.84375-20.089844 18.84375-20.089844-13.878906-.832031-18.703125-18.742187-18.703125-18.742187zm0 0" fill="#d7e057"/><path d="m401.242188 72.164062c-11.53125-.691406-15.945313-16.371093-15.988282-16.53125-.382812-1.402343-1.699218-2.324218-3.164062-2.203124-1.453125.128906-2.597656 1.285156-2.71875 2.738281-1.160156 13.738281-15.292969 16.128906-15.886719 16.222656-1.523437.230469-2.625 1.582031-2.542969 3.121094.078125 1.539062 1.3125 2.769531 2.851563 2.84375 12.074219.566406 15.449219 17.285156 15.480469 17.449219.269531 1.425781 1.515624 2.441406 2.941406 2.441406.085937 0 .167968 0 .25-.007813 1.53125-.128906 2.71875-1.390625 2.753906-2.925781.257812-11.417969 16.664062-17.265625 16.824219-17.320312 1.355469-.46875 2.1875-1.828126 1.992187-3.246094-.191406-1.414063-1.363281-2.496094-2.792968-2.582032zm-19.167969 13.589844c-1.847657-3.773437-4.679688-7.894531-8.894531-10.5625 3.710937-2.082031 7.394531-5.257812 9.742187-9.832031 2.113281 3.746094 5.308594 7.910156 9.882813 10.445313-3.699219 2.203124-7.980469 5.484374-10.730469 9.949218zm0 0" fill="#3a312a"/><path d="m382.359375 3.101562c-1.378906 16.359376-18.421875 18.941407-18.421875 18.941407 14.632812.6875 18.28125 19.890625 18.28125 19.890625.3125-13.691406 18.84375-20.089844 18.84375-20.089844-13.878906-.832031-18.703125-18.742188-18.703125-18.742188zm0 0" fill="#d7e057"/><path d="m401.242188 18.847656c-11.53125-.691406-15.945313-16.371094-15.984376-16.53125-.382812-1.402344-1.703124-2.3281248-3.164062-2.203125-1.453125.128907-2.601562 1.285157-2.722656 2.734375-1.15625 13.742188-15.292969 16.132813-15.882813 16.230469-1.527343.226563-2.625 1.578125-2.546875 3.117187.082032 1.542969 1.316406 2.769532 2.855469 2.84375 12.070313.566407 15.445313 17.289063 15.480469 17.453126.269531 1.425781 1.515625 2.4375 2.941406 2.4375.085938 0 .167969 0 .25-.007813 1.53125-.128906 2.71875-1.390625 2.753906-2.921875.257813-11.417969 16.660156-17.269531 16.824219-17.324219 1.351563-.46875 2.1875-1.828125 1.992187-3.246093-.195312-1.414063-1.367187-2.496094-2.796874-2.582032zm-19.167969 13.589844c-1.847657-3.769531-4.679688-7.894531-8.894531-10.558594 3.710937-2.082031 7.394531-5.261718 9.742187-9.832031 2.113281 3.746094 5.308594 7.90625 9.882813 10.445313-3.699219 2.203124-7.980469 5.480468-10.730469 9.945312zm0 0" fill="#3a312a"/><path d="m425.644531 326.316406c-2.714843-2.195312-4.371093-5.441406-4.371093-8.933594v-161.625c0-21.128906-16.5625-38.984374-37.683594-39.566406-21.910156-.597656-39.863282 16.984375-39.863282 38.761719v162.375c0 3.527344-1.671874 6.800781-4.414062 9.027344-15.792969 12.8125-25.78125 32.496093-25.402344 54.503906.628906 36.132813 29.808594 65.964844 65.917969 67.335937 39.105469 1.484376 71.273437-29.777343 71.273437-68.550781 0-21.539062-9.929687-40.753906-25.457031-53.328125zm0 0" fill="#fce8cb"/><path d="m427.53125 323.988281c-2.070312-1.679687-3.257812-4.089843-3.257812-6.605469v-161.625c0-22.855468-18.214844-41.953124-40.601563-42.566406-11.40625-.3125-22.148437 3.886719-30.300781 11.816406-8.152344 7.933594-12.644532 18.570313-12.644532 29.945313v75.84375c0 1.660156 1.339844 3 3 3 1.65625 0 3-1.339844 3-3v-75.847656c0-9.742188 3.84375-18.847657 10.828126-25.640625 6.984374-6.792969 16.210937-10.414063 25.953124-10.117188 19.171876.523438 34.765626 16.929688 34.765626 36.566406v161.625c0 4.339844 2 8.445313 5.484374 11.265626 15.46875 12.535156 24.34375 31.121093 24.34375 50.996093 0 17.996094-7.144531 34.78125-20.113281 47.265625-12.957031 12.472656-30.046875 18.972656-48.046875 18.285156-34.742187-1.320312-62.429687-29.601562-63.035156-64.386718-.351562-20.3125 8.503906-39.3125 24.292969-52.125 3.511719-2.847656 5.523437-6.988282 5.523437-11.359375v-53.238281c0-1.660157-1.34375-3-3-3-1.660156 0-3 1.339843-3 3v53.238281c0 2.554687-1.203125 4.996093-3.300781 6.699219-17.234375 13.980468-26.898437 34.714843-26.515625 56.886718.660156 37.96875 30.882812 68.839844 68.804688 70.28125.941406.035156 1.878906.054688 2.816406.054688 18.625 0 36.15625-7.050782 49.625-20.015625 14.152344-13.625 21.949218-31.945313 21.949218-51.589844 0-21.691406-9.6875-41.976563-26.570312-55.652344zm0 0" fill="#3a312a"/><path d="m401.804688 343.738281c-5.375-2.894531-8.863282-8.355469-8.863282-14.460937v-172.148438c0-5.714844-4.40625-10.699218-10.121094-10.871094-5.910156-.179687-10.757812 4.558594-10.757812 10.433594v172.585938c0 6.046875-3.382812 11.535156-8.71875 14.382812-13.878906 7.402344-22.976562 22.597656-21.4375 39.75 1.777344 19.785156 18 35.59375 37.824219 36.902344 23.765625 1.570312 43.53125-17.242188 43.53125-40.671875 0-15.527344-8.683594-29.023437-21.457031-35.902344zm0 0" fill="#f16c7a"/><path d="m403.226562 341.097656c-4.496093-2.421875-7.289062-6.949218-7.289062-11.816406v-172.152344c0-7.433594-5.84375-13.65625-13.027344-13.871094-3.6875-.085937-7.140625 1.234376-9.769531 3.785157-2.632813 2.554687-4.082031 5.980469-4.082031 9.648437v172.585938c0 4.894531-2.734375 9.386718-7.128906 11.734375-15.5625 8.296875-24.59375 25.046875-23.015626 42.667969 1.902344 21.1875 19.363282 38.222656 40.613282 39.625 1.007812.066406 2.011718.101562 3.007812.101562 11.15625 0 21.664063-4.136719 29.863282-11.808594 8.808593-8.246094 13.863281-19.894531 13.863281-31.957031 0-16.121094-8.828125-30.890625-23.035157-38.542969zm5.074219 66.117188c-7.707031 7.214844-17.785156 10.808594-28.375 10.101562-18.332031-1.207031-33.390625-15.902344-35.03125-34.175781-1.367187-15.210937 6.425781-29.671875 19.859375-36.835937 6.355469-3.390626 10.304688-9.914063 10.304688-17.027344v-172.585938c0-2.03125.800781-3.925781 2.257812-5.339844 1.402344-1.359374 3.234375-2.101562 5.179688-2.101562.078125 0 .152344 0 .230468.003906 3.976563.121094 7.210938 3.652344 7.210938 7.875v172.148438c0 7.078125 4 13.632812 10.441406 17.101562 12.261719 6.601563 19.882813 19.347656 19.882813 33.261719 0 10.5625-4.246094 20.355469-11.960938 27.574219zm0 0" fill="#3a312a"/><path d="m423.746094 328.648438c-3.480469-2.816407-5.480469-6.917969-5.480469-11.257813v-161.640625c0-19.621094-15.578125-36.039062-34.757813-36.558594-3.101562-.082031-6.160156.21875-9.101562.898438 15.878906 3.71875 27.859375 18.460937 27.859375 35.660156v161.640625c0 4.339844 2 8.441406 5.480469 11.257813 15.480468 12.542968 24.359375 31.121093 24.359375 51 0 17.980468-7.140625 34.78125-20.121094 47.261718-10.378906 10-23.398437 16.160156-37.417969 17.839844 1.757813.21875 3.558594.378906 5.378906.441406 18 .699219 35.082032-5.800781 48.039063-18.28125 12.980469-12.480468 20.121094-29.28125 20.121094-47.261718 0-19.878907-8.878907-38.457032-24.359375-51zm0 0" fill="#ccae8b"/></svg>